<?xml version="1.0" encoding="UTF-8"?>
<!DOCTYPE svg PUBLIC "-//W3C//DTD SVG 1.1//EN" "http://www.w3.org/Graphics/SVG/1.1/DTD/svg11.dtd">
<!-- Creator: CorelDRAW 2021.5 -->
<svg xmlns="http://www.w3.org/2000/svg" xml:space="preserve" width="210mm" height="297mm" version="1.1" style="shape-rendering:geometricPrecision; text-rendering:geometricPrecision; image-rendering:optimizeQuality; fill-rule:evenodd; clip-rule:evenodd"
viewBox="0 0 21000 29700"
 xmlns:xlink="http://www.w3.org/1999/xlink"
 xmlns:xodm="http://www.corel.com/coreldraw/odm/2003">
 <defs>
  <style type="text/css">
   <![CDATA[
    .str0 {stroke:#2B2A29;stroke-width:300;stroke-miterlimit:22.9256}
    .fil0 {fill:none}
    .fil1 {fill:#2B2A29}
    .fil3 {fill:black}
    .fil2 {fill:white}
   ]]>
  </style>
    <clipPath id="id0">
     <rect x="1711.2" y="3326.13" width="6501.28" height="5997.19"/>
    </clipPath>
     <clipPath id="id1">
      <rect x="1711.21" y="3326.13" width="6501.27" height="5997.19"/>
     </clipPath>
 </defs>
 <g id="Слой_x0020_1">
  <metadata id="CorelCorpID_0Corel-Layer"/>
  <g id="_2261799210656">
   <g style="clip-path:url(#id0)">
    <image id="Без_x0020_имени_x0020__x0028_2_x0029_.png" style="clip-path:url(#id1)" x="1711.21" y="3326.13" width="6501.28" height="5997.19" xlink:href="хеллоуин2_Images\хеллоуин2_ImgID1.png"/>
   </g>
   <rect class="fil0 str0" x="1685.93" y="3322.61" width="6526.56" height="6004.28"/>
  </g>
  <rect class="fil1 str0" x="5297.63" y="9888.86" width="6489.24" height="6004.3"/>
  <g id="_2261799207968">
   <g>
    <path class="fil2" d="M12579.16 6585.78l3484.13 -771.29 -771.29 -3484.13 -3484.13 771.29 771.29 3484.13zm2895.76 -2070.2c0,0.01 -2.15,26.8 5.3,50.27 -3.04,23.95 -13.79,161.8 -0.35,183.94l-3.05 119.25c0,30.35 -16.44,29.09 3.27,88.08 4.95,14.81 19.63,75.37 73.99,49.12l20.95 -18.94c65.86,-5.03 41.04,-82.04 40.89,-122.72 -0.22,-60.69 5.98,-85.47 -3.19,-149.3 -9.01,-62.76 16.94,-54.53 1.76,-116.27l4.2 -128.37c-7.07,-62.94 -57.6,-65.48 -83.97,-41.12 -30.4,-10.42 -75.22,9.27 -63.86,67.13l4.06 18.93zm-384.58 -104.48c27.3,2.06 103.37,-10.23 124.94,-26.39l53.33 -12.96c98.64,-1.34 109.3,-123.03 11.12,-107.74l-236.56 48.67c-22.38,0 -70.63,-1.17 -67.96,51.18 2.97,58.32 75.14,50.26 115.13,47.24zm-181.22 559.14c11.76,3.83 22.98,3.29 32.75,-0.23 17.97,2.74 36.79,6.9 53.49,14.45 0.64,35.23 2.98,76.34 14.93,92.31 29.09,38.91 92.04,17.55 90,-32.48 -0.16,-4.07 -0.28,-8.38 -0.36,-12.87 23.18,2.32 50.19,-6.92 67.25,-24.36 29.87,3.16 56.66,5.73 74.13,7.5 3.38,0.34 6.65,0.41 9.8,0.23l76.95 22.5c39.08,5.63 152.54,72.08 161.23,-13.65 4.99,-49.23 -50.56,-59.1 -104.27,-75.79 -48.83,-15.17 -43.04,-2.28 -110.69,-30.91 -20.38,-8.65 -36.26,-12.6 -58.97,-10.31 -4.42,0.45 -28.46,-4.89 -53.32,-4.59l-125.69 -16.36c-11.39,-3.47 -24.21,-6.34 -36.14,-5.96 -8.14,-1.81 -18.17,-3.81 -30.61,-6.03 -11.9,-2.13 -32.13,-7.89 -53.51,-11.32 -8.75,-3.87 -18.83,-6.26 -28.36,-7.17 -32.67,-11.58 -98.63,-36.69 -108.44,22.52 -18.99,27.36 -11.54,73.89 31.97,79.94l97.86 12.58zm-1022.68 -1609.59l70.28 5.97c60.96,9.33 104.75,-101.97 -28.26,-104.81 -13.39,-3.24 -21.34,-1.15 -34,-1.18 -13.99,-4.51 -36.07,-1.84 -49.56,3.1 -49.49,18.11 -43.36,97.16 22.17,97.16 5.7,0.18 13.68,0.12 19.37,-0.24zm42.41 256.16c-4.26,10.29 -5.6,23.07 -2.5,38.37 9.34,46 80.55,61.22 98.43,-2.05 3.42,-7.68 5.29,-16.67 4.98,-26.89 17.67,-60.88 -84.5,-100.93 -100.91,-9.43zm-346.05 -206.05c-134.43,-85.05 -101.5,248.17 18.39,95.82 4.12,-3.2 7.83,-7.22 10.9,-12.09 7.11,-8.02 12.19,-19.26 13.69,-34.1 -3.51,-34.67 -22.4,-48.72 -42.98,-49.63zm593.76 969.28c4.17,9.09 13.27,18.91 24.69,27.21 3.76,4.48 7.59,8.2 12.58,11.35 25.77,33.48 87.79,71.84 112.92,12.47 12.7,-30.03 -8.53,-55.5 -35.2,-80.62 -26.08,-51.7 -124.68,-67.94 -120.88,6.65l5.89 22.94zm-840.71 -67.45c46.94,-40.27 -5.63,-111.4 -57.03,-81.85 -12.03,6.91 -78.19,6.18 -67.81,66.45 0.13,0.75 -13.9,71.07 49.29,67.85 26.47,-1.34 64.87,-37.36 75.55,-52.45zm-775.62 66.64c31.66,-50.22 -46.25,-109.92 -87.62,-51.3 -0.6,0.6 -1.25,1.48 -1.96,2.59 -36.91,12.11 -81.68,26.68 -94.87,48.42l-7.24 25.92c1.01,36.94 34.75,58.53 69.21,46.25 -2.52,23.14 -1.74,43.2 5.03,53.25 28.35,42.04 95.93,26.11 95.93,-52.12l13.5 -54.31c3.92,-5.45 6.7,-12.14 8.02,-18.7zm540.81 -189.85c30.54,-38.17 -6.13,-90.58 -46.02,-93.67 -5.41,-3.23 -11.8,-5.92 -19.24,-7.87 -50.22,-13.16 -74.24,25.07 -67.3,57.39 -0.71,6.21 -0.87,12.01 -0.56,17.38 -0.54,2 -1.05,4.06 -1.49,6.19 -0.05,0.27 -3.47,5.88 -7.83,14.61 -20.14,18.73 -34.94,51.59 -17.61,76.67 3.31,16.32 14.28,29.75 38.91,34.75 37.66,7.64 49.76,-17.73 60.87,-44.08 22.25,2.48 45.95,-12.38 57.62,-52.73l2.65 -8.64zm-501.46 -76.11c0.38,13.89 4.2,24.51 10.23,32.29l-0.21 6.98c-23.47,26.43 -12.88,75.99 31.32,84.92 35.85,21.58 102.45,-16.59 74.37,-65.18 -0.69,-4.46 -2.1,-9.09 -4.3,-13.84 0.12,-9.99 0.4,-20.46 1.74,-31.14 0.39,-2.69 1.17,-4.59 1.75,-7.17 7.06,-13.23 7.31,-29.25 -4.5,-45.88 -18.24,-34.44 -68.26,-27.9 -90.18,-0.78 -11.65,8.79 -19.74,22.12 -20.22,39.8z"/>
    <path class="fil3" d="M13863.66 3360.81c-116.29,17.44 -138.16,1.35 -227.88,104.27 -4.14,4.76 -10.85,13.51 -17.08,19.86 -3.63,6.8 -11.55,17.03 -17.51,21.65 -4.4,5.59 -9.65,11.02 -15.36,15.68 -1.67,2.52 -3.51,4.81 -5.49,6.86 -6.83,10.54 -22.28,28.18 -29.65,36.06 -15.26,16.29 -23.73,22.66 -35.12,40.4 -16.31,-2.53 -37.57,-9.82 -53.94,-14.29 -59.38,-16.19 -122.67,-32.94 -184.58,-6.21 15.92,26.8 189.26,75.15 225.91,80.22 1.91,12.98 -0.05,23.13 1.92,37.31 3.78,27.15 -15.69,28.44 -34.63,49.59 -17.91,19.99 -16.85,5.06 -26.74,15.64 -8.2,10.58 5.38,8.56 -8.31,29.93 -7.87,12.27 -10.37,22.94 1.53,30.81 18.98,12.54 51.58,6.4 72.57,15.71 -1.35,29 -24.94,51.93 -35.18,74.02 -18.13,39.13 10.81,53.4 48.84,37.61 29.22,-12.14 51.72,-33.26 83.59,-42.24 25.16,-7.1 44.87,-4.38 64.72,9.23 9.53,6.54 12.33,7.36 15.06,16.4l-87.36 89.23c-31.01,34.22 -53.59,60.95 -81.42,92.88 -47.88,54.94 -112.69,137.97 -172.68,181.5 -2.46,3.36 -5.45,6.6 -9.02,9.66 -6.2,8.76 -21.75,24.58 -38.89,36.57 -0.9,1.59 -3.24,3.68 -7.59,7.71 -6.83,6.33 -12.37,11.82 -18.79,18.66 -86.77,92.49 -61.35,99.67 -187.64,184.33 -27.29,18.29 -64.88,46.52 -70.32,75.73 -14.94,3.34 -29.5,2.18 -44.97,2.34l-15.45 -2.14c27.87,-59.85 52.11,-131.11 41.26,-203.19 -7.38,-48.98 -29.85,-64.8 -52.28,-97.85 -24.94,-36.76 -26.77,-66.44 -30.13,-113.81 4.11,-4.26 26.65,-17.86 34.86,-24.72 1.1,-0.92 2.22,-1.68 3.36,-2.3 2.89,-3.8 5.81,-7.24 9.33,-10.51l8.23 -24.63 0.95 -0.12c-0.06,-4.21 0.17,-8.66 0.71,-13.36 -1.07,-4.94 -1.41,-10.02 -1.05,-15.03 -3.81,-18.98 -9.48,-29.54 -2.03,-42.7 22.38,-39.57 5.36,-29.57 1.39,-48.89 12,-10.03 21.47,-2.66 11.37,-26.02 -17.5,-40.47 5.95,-27.83 11.97,-49.98 1.1,-4.03 2.13,-14.01 2.81,-18.81 1.84,-12.98 5.6,-25.89 0.63,-38.83 -15.37,14.09 -37.01,42.67 -50.99,60.32 -8.63,10.89 -14.89,20.07 -22.91,32.14 -6.47,9.73 -13.61,24.12 -21.11,32.62 -31.06,-9.96 -41.1,-7.98 -80.52,-0.88 -11.25,-26.09 -70.05,-129.2 -89.02,-145.88 -9.53,16.25 -10.93,98.01 -9.39,112.91 27.96,18 6.35,24.58 -0.75,31.6 0.93,17 0.81,31.73 3.88,50.7 2,12.38 -0.16,18.66 -3.52,25.89 -0.43,5 -3.09,13.27 -6.16,20.35 -1.62,11.22 -1.94,22.41 -2.09,33.65 2.21,4.77 3.6,9.41 4.29,13.89 9.54,15.91 19.74,29.05 36.36,37.95 12.47,6.68 34.2,16.16 53.59,18.27 0.67,21.47 -30.17,62.74 -40.46,79.24 -10.84,17.4 -16.84,39.49 -28.75,58.75 -36.48,58.97 -45.82,142.06 -30.96,221.58 -35.39,-3.83 -71.89,-53.91 -83.67,-101.82 -20.87,-84.85 22.33,-143.93 2.38,-223.44 -5.8,-23.11 -24.91,-48.06 -49.48,-37.21 -24.67,10.89 -10.84,44.85 -3.08,69.32 8,25.24 2.5,45.04 -3.74,62.73 -0.5,7.13 -2.78,14.43 -7.26,21.54 -1.31,6.56 -4.1,13.22 -8.01,18.67l-7.97 32.07c5.06,45.13 -5.62,68.7 35.1,127.44 28.95,41.76 51.65,52.87 84.98,81.77 -64.55,8.62 -203.95,-12.45 -271.68,-19.78 -70.96,-7.67 -71.51,60.18 -13.11,67.77 36.81,4.78 104.07,-0.59 145.2,-0.15 165.06,1.77 330.1,2.12 494.68,8.97 21.98,0.92 12.18,7.01 25.81,14.59 13.28,7.37 24.48,-2.98 37.26,-6.51 20.23,19.82 29.65,21.1 61.11,7.18 12.48,7 14.79,18.56 34.75,14.77 20.06,-3.8 21.25,-19.92 31.61,-23.38 7.76,-2.59 250.07,5.25 266.46,6.22 2.67,35.69 -40.5,76.64 34.91,187.88 15.8,23.3 -11.55,78.78 106.29,269.09 16.44,26.54 71.75,110.65 74.76,139.84l-73.83 40.59c41.47,17.43 111.28,35.38 96.41,85.42 -2.61,8.75 -39.41,20.06 -18.98,55.77 7.88,13.76 6.1,12.99 -0.51,26.06 -25.21,49.85 -60.82,77.24 -104.9,117.61 66.45,49.07 232.25,7.67 238.58,-146.45 0.92,-22.33 -4.48,-33.92 5.87,-49.78 24.47,-4.03 33.6,25.87 52.27,30.31 14.76,-8.95 30.16,-38.6 25.73,-63.03 -5.35,-29.45 -31.34,-36.94 -51.24,-43.37 -73.13,-23.62 -52,-23.14 -71.62,-74.77 -7.07,-18.63 -22.63,-14.68 -25.22,-15.1 -0.91,-0.14 -4.05,-0.76 -4.76,-1.11 1.67,-73.18 -3.18,-150.68 -8.04,-225.69 8.28,-3.52 51.58,1.7 67.19,0.8 66.87,-3.87 134.05,-24.87 198.78,-40.59 22.87,27.46 34.58,44.73 66.56,65.29 18.2,11.7 70.97,30.63 82.86,41.49l-44.02 39.84c47.86,19.63 89.68,-6.22 99.56,59.22 -37.24,30.1 -19.21,43.43 -1.44,68.85 -11.95,38.34 -26.14,70.92 -49.99,100.69 -5.56,6.94 -21.14,23.48 -21.62,32.23 81.04,25.64 169.36,-38.39 183,-128.07 5.7,-37.51 -8.08,-62.66 -5.3,-94.57 26.39,-8.86 32.18,13.5 52.59,15.59 14.28,-11.73 21.28,-42.3 10.31,-65.13 -10.34,-21.52 -31.8,-23.03 -56.64,-25.29 -69.68,-6.34 -46.28,-20.7 -72.45,-54.73 -10.24,-13.31 -20.86,-3.74 -32.9,0.75l-14.24 -42.66c56.57,5.54 121.72,53.47 258.13,1.82 70.4,-26.65 149.56,-81.74 191.42,-140.86 -33.02,6.19 -47.2,20.32 -96.96,24.43 -22.05,1.83 -71.08,1.49 -87.68,-6.76 14.48,-12.01 33.02,-15.39 57.76,-38.92 13.91,-13.23 32.55,-38.73 36.6,-53.6 -45.5,9.1 -118.69,58.09 -201.27,30.46 -49.21,-16.47 -98.46,-60.42 -111.33,-134.57 12.63,-4.58 114.83,-2.83 136.5,-3.03 44.86,-0.43 118.37,-9.28 140.9,-8.94 16.78,44.02 33.62,47.99 79.31,33.33 30.71,48.01 67.86,62.68 120.47,82.18 37.07,13.73 73.86,26.95 110.34,41.6 13.03,2.93 26.96,7.58 40.36,12.31 9.17,1.01 18.7,3.32 27.14,7.04 21.39,3.42 41.62,9.19 53.53,11.33 12.43,2.22 22.45,4.22 30.58,6.03 11.9,-0.4 24.8,2.5 36.17,5.96l125.66 16.36c24.88,-0.31 48.92,5.04 53.35,4.59 11.45,-1.15 21.35,-0.77 29.84,0.79 16.38,-2.57 67.02,-1.21 81.47,-2.14 40.05,-2.54 97.49,-10.93 149.39,-25.57 0.46,-3.14 0.76,-6.62 0.76,-10.67l3.28 -41.34c-13.76,-1.61 -28.63,-4.29 -44.58,-8.77 -35.57,-9.99 -89.49,-35.06 -108.39,-67.4 38.45,0.37 64.09,4.14 105.99,-3.18 9.39,-1.64 25.93,-5.39 43.07,-10.23 -1.52,-8.23 -2.36,-19.39 -2.71,-32.13 -21.62,-1.86 -44.45,-4.29 -61.24,-8.13 -31.21,-7.14 -92.9,-26.25 -107.35,-46.43 29.19,-3.62 112.77,-16.88 170.88,-31.79 0.66,-10.68 1.39,-20.59 2.08,-29.07 -50.39,-7.1 -117.51,-16.04 -128.75,-23.39l94.6 -16.62c6.85,-1.53 18.35,-4.27 31.88,-7.75 -1.63,-15.08 -0.66,-27.22 -0.66,-27.23 -1.67,-7.78 -3.77,-15.97 -4.9,-23.81l-1.03 -0.23c-158.56,-35.21 -164.7,-64.47 -350.33,-27.47 26.59,-25.34 132.67,-45.2 161.93,-83.9l-112.53 22.67 1.23 -1.14c-29.06,6.76 -62.67,10.63 -78.95,9.4 -15.42,1.16 -35.63,3.07 -54.8,1.64 -116.91,8.33 -245.17,-19.99 -364.16,105.39 -22.13,23.32 -26.46,38.75 -43.34,62.62 -16.97,-13.63 -25.93,-34.84 -56.32,-18.47 -17.36,9.35 -30.44,35.76 -32.32,53.71 -26.09,1.94 -98.25,-3.32 -134.32,-2.88 -47.8,0.58 -92.82,2.37 -140.15,3.29 -2.29,-19.47 6.63,-59.29 6.45,-84.85 -0.23,-33.29 -10.18,-64.4 -29.98,-86.62 -10.91,-7.77 -20.61,-17.24 -27.61,-26.35 -4.95,-3.13 -8.81,-6.87 -12.53,-11.33 -8.17,-5.94 -15.15,-12.66 -19.99,-19.32 -37.81,-34.99 -67.05,-99.41 -71.71,-158.09 27.94,-3.84 95.19,22.11 210.91,-6.56 156.45,-38.77 271.41,-100.65 432.64,-43.97 -10.87,-26.2 -60.81,-57.07 -83.44,-66 -83.06,-32.79 -171.32,10.86 -252.2,-4.43 -34.8,-6.58 -77.09,-25.21 -92.07,-57.92 47.95,-5.86 78.31,-0.26 127.57,-25.85 7.91,-4.11 8.74,-4.44 12.83,-9.93 -12.36,-3.11 -29.64,-3.6 -42.71,-6.4 -31.7,-6.8 -90.7,-26.9 -111.87,-54.35 39.56,-2.46 65.39,-2.71 106.46,-14.9 21.71,-6.44 72.52,-22.29 85.29,-40.79 -207.06,41.79 -365.62,1.02 -531.18,-102.35 -8.4,-5.25 -9.02,-4.55 -15.09,-12.33 28.76,0.43 92.37,12.65 117.23,20.52 17.5,5.54 36.68,10.02 58.55,7.32 25.24,-3.11 49.37,-11.58 52.6,-31.53 -8.65,-23.79 -38.05,-25.21 -62.66,-29.57 -49.77,-8.82 -95.84,-21.89 -145.75,-31.86 -25,-5 -51.41,-9.56 -74.05,-15.38 4.62,-9.76 10.6,-17.11 14.79,-28.6 3.35,-9.16 4.15,-19.09 7.66,-28.03 -1.11,-10.53 -0.04,-20.86 3.78,-30.11 1.18,-6.56 2.79,-12.43 4.78,-17.68l-0.19 -0.06c14.51,-116.66 127.53,-86.62 186.5,-91.15 71.61,-5.51 210.42,-71.53 220.35,-103.54 7.42,-23.88 -18.63,-32.39 -36.18,-23.65 -14.42,7.16 -26.63,24.07 -43.21,33.85 -37.81,22.31 -83.19,20.74 -121.73,12.76 -68.77,-14.23 -122.54,-48.75 -190.12,-61 -3.4,-1.05 -36.85,-4.01 -40.43,-3.75l0.01 -0.06c-9.11,-0.78 -17.45,-1.56 -26.58,-1.66l0.02 -0.11c-6.1,-0.03 -12.4,0.18 -18.41,0.04z"/>
    <path class="fil2" d="M13270.09 4640.93c43.18,1.11 88.22,4.3 131.91,4.6 22.09,0.16 48.63,0.01 69.71,-2.53 43.54,-5.24 32.53,-9.67 53.69,-32.56 73.62,-79.63 158.76,-84.87 231.28,-125.85 102.56,-57.95 98.98,-190.94 49.38,-204.89 -44.79,-12.6 -89.52,20.01 -127.13,-13.11 -34.01,-29.96 -4.78,-92.63 1.09,-123.13 -10.1,7.67 -20.44,18.73 -32.04,28.29 -35.84,29.53 -73.08,46.92 -79.93,98.54 -5.55,41.81 0.42,57.99 -29.37,82.3 -29.36,23.96 -50.3,26.19 -64.08,59.24 -11.05,26.5 -8,61.26 -21.33,84.73 -14.05,24.71 -43.13,44.31 -79.64,32.66 -25.17,-8.03 -37.56,-23.45 -63.71,34.95 -15.88,35.43 -10.06,35.75 -33.13,65.23l-6.7 11.53z"/>
   </g>
   <rect class="fil0 str0" x="8968.24" y="3314.64" width="6489.24" height="6004.3"/>
  </g>
 </g>
</svg>
