<svg xmlns="http://www.w3.org/2000/svg" xmlns:xlink="http://www.w3.org/1999/xlink" height="650" width="870">
<g>
	<path style="fill:#8b4513;" d="M 606.0,80.0 C 573.68,63.4652 537.52,54.848 502.0,48.679 419.315,34.3187 332.472,45.334 256.0,80.0 251.115,52.5934 219.225,27.3941 196.0,15.7531 117.032,-23.8271 18.1353,25.4998 5.4282,114.0 -0.4546,154.972 12.7059,195.886 41.0895,225.996 49.4418,234.856 59.5204,242.083 70.0,248.188 73.2461,250.08 81.0995,252.139 82.071,256.213 83.4815,262.128 77.3578,272.102 76.0108,278.0 71.8346,296.285 68.3728,314.261 67.0895,333.0 63.4482,386.173 79.201,442.247 107.695,487.0 242.844,699.263 595.493,704.616 743.116,504.0 779.367,454.736 797.633,394.021 794.961,333.0 794.212,315.9 791.996,297.414 786.975,281.0 785.265,275.408 778.451,261.715 780.407,256.213 781.959,251.845 791.251,249.061 795.0,246.796 806.177,240.047 816.046,231.565 824.91,222.0 858.764,185.468 867.039,128.642 848.547,83.0 814.12,-1.9727 698.832,-25.5226 634.0,39.0008 622.599,50.3475 610.63,64.2289 606.0,80.0 Z"/>
	<path style="fill:#ffa501;" d="M 124.0,67.4645 C 86.2592,74.2572 62.0747,111.881 70.8843,149.0 74.6991,165.074 83.4921,178.871 97.0,188.572 101.023,191.461 107.435,196.62 112.816,195.589 117.063,194.775 120.243,188.173 122.627,185.0 129.956,175.242 137.985,166.045 146.17,157.0 156.816,145.234 169.443,134.552 182.0,124.881 186.313,121.56 196.701,116.313 198.292,110.907 200.069,104.866 191.737,95.322 188.331,91.0 173.537,72.2262 147.497,63.2355 124.0,67.4645 Z"/>
	<path style="fill:#ffa501;" d="M 714.0,67.4645 C 696.855,70.5492 681.902,80.076 671.515,94.0 668.479,98.0695 662.539,106.418 664.619,111.816 666.741,117.324 676.473,121.896 681.0,125.424 693.003,134.78 704.362,145.11 714.985,156.0 724.127,165.371 732.514,175.538 740.373,186.0 743.166,189.717 746.456,196.409 752.004,195.304 785.868,188.56 798.326,142.599 790.51,114.0 781.604,81.4118 746.786,61.5656 714.0,67.4645 Z"/>
	<path style="fill:#462309;" d="M 285.0,171.468 C 269.215,174.419 244.938,176.486 231.043,184.558 222.338,189.615 223.929,204.441 235.0,204.902 247.506,205.423 261.729,198.794 274.0,196.46 281.113,195.107 291.813,194.121 297.945,190.143 312.189,180.902 296.178,169.378 285.0,171.468 M 578.015,172.028 C 570.659,175.822 570.646,185.563 577.105,190.182 587.477,197.6 605.781,199.992 618.0,203.421 622.833,204.776 628.269,205.96 632.786,202.91 638.95,198.75 637.971,188.768 631.956,185.089 621.231,178.529 605.015,176.7 593.0,173.025 588.51,171.651 582.514,169.707 578.015,172.028 Z"/>
	<path style="fill:#ffa501;" d="M 341.0,427.0 C 278.328,424.268 250.209,322.15 312.0,296.015 319.011,293.049 325.434,291.988 333.0,292.0 341.504,292.013 349.164,293.978 357.0,297.204 367.034,301.334 375.573,308.086 382.91,316.0 392.387,326.224 398.192,338.585 401.525,352.0 405.965,369.873 400.967,385.728 394.0,402.0 417.913,398.78 438.955,397.945 463.0,401.0 458.545,385.416 452.226,371.805 455.666,355.0 458.199,342.621 463.243,331.065 470.899,321.0 476.924,313.079 484.501,306.353 493.0,301.204 530.384,278.556 575.798,301.887 581.791,345.0 584.611,365.284 573.858,389.756 559.985,404.0 548.631,415.658 536.92,421.279 522.0,427.0 527.632,435.09 536.659,442.752 538.0,453.0 624.226,440.085 673.286,313.822 612.911,249.0 602.452,237.771 589.965,231.356 576.0,225.579 563.901,220.575 550.813,220.995 538.0,221.0 523.301,221.006 508.099,226.106 495.0,232.609 474.212,242.929 457.241,259.819 444.516,279.0 439.16,287.073 436.428,297.881 430.0,305.0 428.2,287.425 410.933,267.896 399.0,256.001 350.498,207.655 263.498,206.884 232.309,275.0 227.1,286.375 223.946,299.505 223.09,312.0 219.909,358.407 241.035,404.184 278.0,432.346 287.325,439.45 299.086,444.996 310.0,449.155 313.652,450.547 318.767,453.143 322.725,451.393 325.738,450.06 326.891,445.632 328.454,443.0 331.978,437.063 337.07,432.58 341.0,427.0 Z"/>
	<path style="fill:#ffffff;" d="M 354.0,418.0 L 354.0,417.0 C 345.478,416.823 336.645,414.151 330.0,408.671 324.498,404.134 319.709,398.59 316.879,392.0 306.546,367.944 324.894,338.879 351.0,337.091 366.11,336.056 380.481,346.388 387.712,359.0 391.032,364.791 393.117,370.258 392.985,377.0 392.762,388.314 386.134,395.171 382.0,405.0 407.277,399.783 404.701,363.546 399.09,344.0 388.588,307.412 346.332,282.5 310.0,297.208 269.157,313.743 270.574,368.977 293.503,399.0 302.587,410.894 324.233,429.253 341.0,425.693 345.8,424.674 349.803,420.391 354.0,418.0 Z"/>
	<path style="fill:#ffffff;" d="M 481.0,405.0 C 474.469,394.416 468.418,385.063 470.3,372.0 474.534,342.617 508.074,328.116 532.0,345.043 564.044,367.714 545.562,416.221 508.0,417.0 511.229,419.875 515.738,424.19 520.0,425.242 535.128,428.973 556.511,409.46 564.497,399.0 586.731,369.877 588.374,320.061 553.0,299.879 514.953,278.172 469.317,307.63 458.291,346.0 454.332,359.778 451.193,389.705 464.39,400.157 468.43,403.356 476.014,404.267 481.0,405.0 Z"/>
	<path style="fill:#0a0a0a;" d="M 358.0,415.0 C 347.826,426.021 333.441,431.075 326.951,446.0 314.419,474.822 334.823,500.864 360.0,513.741 401.38,534.904 457.351,534.783 499.015,514.702 524.013,502.654 549.152,476.87 535.687,447.0 528.612,431.306 515.091,426.447 504.0,415.0 515.077,415.0 525.079,414.063 533.999,406.671 553.77,390.287 552.102,358.114 530.0,344.468 507.706,330.704 475.659,343.484 471.325,370.0 468.95,384.53 475.397,395.458 483.0,407.0 449.182,399.247 411.191,393.716 378.0,408.0 385.019,397.915 392.474,389.189 391.791,376.0 390.349,348.15 359.004,328.659 334.0,343.454 311.778,356.602 307.486,389.541 328.004,406.671 336.885,414.086 346.951,415.0 358.0,415.0 Z"/>
	<path style="fill:#ffffff;" d="M 359.0,347.573 C 343.668,351.2 349.322,375.379 364.999,371.438 380.164,367.626 374.084,344.004 359.0,347.573 Z"/>
	<path style="fill:#ffffff;" d="M 517.004,348.742 C 502.711,354.28 512.889,376.775 526.996,370.991 542.507,364.631 532.23,342.843 517.004,348.742 Z"/>
	<path style="fill:#3b3a36;" d="M 437.0,416.61 C 433.054,417.619 428.791,419.165 425.0,420.66 413.768,425.089 410.323,437.354 421.09,444.532 431.402,451.406 448.015,453.278 460.0,450.402 463.738,449.505 467.45,448.052 471.0,446.596 482.685,441.8 487.397,429.912 474.999,422.482 464.953,416.462 448.418,413.689 437.0,416.61 Z"/>
	<path style="fill:#462309;" d="M 426.0,562.529 C 395.301,569.612 407.223,615.8 438.0,608.468 467.024,601.553 454.899,555.862 426.0,562.529 Z"/>
	<path style="fill:#8b4513;" d="M 427.005,576.029 C 414.844,582.161 423.626,601.392 435.981,594.972 447.804,588.829 438.534,570.215 427.005,576.029 Z"/>
</g>
</svg>