<svg xmlns="http://www.w3.org/2000/svg"
 width="1250" height="1000">
<g transform="translate(0,650) scale(0.05,-0.05)"
fill="#000000" stroke="none">
<path d="M2389 12090 c-283 -48 -577 -210 -779 -428 -174 -187 -283 -401 -347
-677 -17 -77 -18 -252 -18 -4890 0 -4670 1 -4813 19 -4900 89 -426 348 -775
711 -957 162 -82 276 -118 450 -143 150 -22 7000 -22 7150 0 230 33 433 113
612 241 287 207 472 488 557 849 l21 90 2 4165 1 4165 -106 96 c-89 79 -2200
1997 -2539 2306 l-102 93 -2793 -1 c-1536 -1 -2814 -5 -2839 -9z m4587 -1024
c12 -12 14 -91 14 -485 l0 -471 -1250 0 -1250 0 0 -265 0 -265 1274 0 1273 0
33 -87 c175 -469 522 -771 1013 -885 89 -21 118 -22 861 -25 634 -3 771 -7
782 -18 12 -11 14 -570 14 -3572 0 -2439 -3 -3571 -11 -3598 -28 -109 -103
-201 -204 -251 l-60 -29 -3465 0 -3465 0 -56 28 c-97 47 -162 133 -193 254
-15 55 -16 501 -14 4730 l3 4668 27 57 c48 103 144 187 247 214 36 10 532 13
2229 13 1880 1 2185 -1 2198 -13z m1884 -740 c443 -379 812 -695 820 -703 13
-12 -86 -13 -690 -11 l-705 3 -56 28 c-62 30 -126 93 -158 154 -49 97 -51 124
-51 703 0 513 1 542 17 529 10 -8 380 -324 823 -703z" fill="darkblue"/>
<path d="M2870 10089 l0 -641 31 6 c17 3 303 6 634 6 l603 0 4 213 c2 134 -1
215 -7 219 -5 4 -42 8 -82 8 -58 0 -71 3 -69 15 1 9 147 161 324 338 319 319
322 323 322 364 0 23 -3 49 -6 58 -10 24 -58 45 -105 45 -42 0 -47 -4 -205
-162 -190 -189 -179 -190 -172 27 4 109 2 135 -10 140 -7 3 -295 5 -638 5
l-624 0 0 -641z m984 355 c12 -5 16 -21 16 -70 l0 -64 70 0 c115 0 114 -6 -34
-151 l-131 -128 -180 178 c-99 98 -191 182 -203 186 -38 11 -89 -3 -113 -33
-17 -22 -20 -37 -17 -81 l5 -53 220 -220 220 -219 69 1 c96 2 94 3 94 -25 l0
-25 -359 0 c-318 0 -360 2 -365 16 -3 9 -6 168 -6 355 l0 339 349 0 c192 0
356 -3 365 -6z" fill="red"/>
<path d="M2870 8094 l0 -646 31 6 c17 3 303 6 634 6 l603 0 4 218 c2 157 0
220 -9 230 -7 7 -38 12 -81 12 -61 0 -70 2 -68 17 2 10 148 159 325 333 l322
315 -3 55 c-3 49 -6 56 -37 77 -61 41 -93 32 -175 -45 -266 -256 -261 -251
-270 -235 -5 9 -7 75 -4 147 3 99 1 135 -8 144 -10 9 -168 12 -639 12 l-625 0
0 -646z m980 351 c0 -8 5 -15 10 -15 6 0 10 -24 10 -54 l0 -53 69 5 c53 3 73
1 85 -10 13 -13 -1 -30 -115 -144 l-129 -129 -168 166 c-92 92 -178 174 -192
183 -13 9 -43 16 -66 16 -58 0 -94 -41 -94 -107 0 -43 4 -50 78 -126 264 -275
340 -351 366 -364 20 -11 49 -14 97 -11 l69 5 0 -34 0 -33 -359 0 c-318 0
-360 2 -365 16 -8 21 -8 689 1 697 3 4 163 7 355 7 303 0 348 -2 348 -15z" fill="red"/>
<path d="M4490 7845 l0 -265 2265 0 2264 0 3 258 c2 163 -1 260 -7 264 -5 4
-1026 8 -2267 8 l-2258 0 0 -265z" fill="darkblue"/>
<path d="M2870 6090 l0 -640 623 0 c342 0 627 4 633 8 18 11 23 410 6 417 -8
3 -44 5 -82 5 -56 0 -68 3 -66 15 1 9 147 161 324 338 l322 323 0 45 c0 51
-26 84 -76 98 -55 15 -84 -4 -246 -166 -184 -184 -173 -187 -166 42 3 117 2
145 -10 150 -7 3 -295 5 -638 5 l-624 0 0 -640z m984 354 c13 -5 16 -22 16
-80 l0 -74 70 0 c120 0 119 -7 -32 -152 l-133 -127 -180 179 c-145 143 -187
180 -215 185 -78 14 -126 -33 -118 -116 l5 -51 214 -214 c233 -234 253 -248
330 -227 23 6 39 6 39 1 0 -5 5 -6 10 -3 6 3 10 -3 10 -14 0 -21 -3 -21 -359
-21 -318 0 -360 2 -365 16 -3 9 -6 171 -6 360 l0 344 349 0 c192 0 356 -3 365
-6z" fill="red"/>
<path d="M4490 5845 l0 -265 2265 0 2264 0 3 253 c2 138 -1 258 -6 265 -7 9
-472 12 -2267 12 l-2259 0 0 -265z" fill="darkblue"/>
<path d="M2870 4089 l0 -641 31 6 c17 3 303 6 635 6 l603 0 3 628 c2 410 0
630 -7 634 -5 4 -292 8 -637 8 l-628 0 0 -641z m984 355 c14 -5 16 -46 16
-355 l0 -349 -359 0 c-318 0 -360 2 -365 16 -3 9 -6 168 -6 355 l0 339 349 0
c192 0 356 -3 365 -6z" fill="red"/>
<path d="M4490 3845 l0 -265 2265 0 2264 0 3 253 c2 138 -1 258 -6 265 -7 9
-472 12 -2267 12 l-2259 0 0 -265z" fill="darkblue"/>
<path d="M2870 2094 l0 -646 31 6 c17 3 303 6 635 6 l603 0 3 628 c2 471 0
630 -9 640 -9 9 -150 12 -637 12 l-626 0 0 -646z m980 351 c0 -8 5 -15 10 -15
6 0 10 -122 10 -345 l0 -345 -359 0 c-318 0 -360 2 -365 16 -8 21 -8 689 1
697 3 4 163 7 355 7 303 0 348 -2 348 -15z" fill="red"/>
<path d="M4490 1845 l0 -265 2265 0 2264 0 3 258 c2 163 -1 260 -7 264 -5 4
-1026 8 -2267 8 l-2258 0 0 -265z" fill="darkblue"/>
</g>
</svg>
