<?xml version="1.0" encoding="UTF-8"?>
<!DOCTYPE svg PUBLIC "-//W3C//DTD SVG 1.1//EN" "http://www.w3.org/Graphics/SVG/1.1/DTD/svg11.dtd">
<!-- Creator: CorelDRAW 2021.5 -->
<svg xmlns="http://www.w3.org/2000/svg" xml:space="preserve" width="297mm" height="240mm" version="1.1" style="shape-rendering:geometricPrecision; text-rendering:geometricPrecision; image-rendering:optimizeQuality; fill-rule:evenodd; clip-rule:evenodd"
viewBox="0 0 29700 24000"
 xmlns:xlink="http://www.w3.org/1999/xlink"
 xmlns:xodm="http://www.corel.com/coreldraw/odm/2003">
 <defs>
  <style type="text/css">
   <![CDATA[
    .str0 {stroke:#2B2A29;stroke-width:20;stroke-miterlimit:22.9256}
    .str2 {stroke:#B9C599;stroke-width:20;stroke-miterlimit:22.9256}
    .str1 {stroke:#BBC274;stroke-width:20;stroke-miterlimit:22.9256}
    .fil8 {fill:#EBECEC}
    .fil12 {fill:#FBD9CA}
    .fil1 {fill:#FCD5A6}
    .fil6 {fill:#FCD5A6}
    .fil4 {fill:#F5B2B6}
    .fil3 {fill:#F7AA47}
    .fil10 {fill:#F08683}
    .fil9 {fill:#F08683}
    .fil0 {fill:#673E31}
    .fil14 {fill:#673E31}
    .fil13 {fill:#DBE285}
    .fil7 {fill:#DBE285}
    .fil5 {fill:#DBE285}
    .fil2 {fill:#9EA564}
    .fil11 {fill:#9EA564}
   ]]>
  </style>
 </defs>
 <g id="Слой_x0020_1">
  <metadata id="CorelCorpID_0Corel-Layer"/>
  <rect class="fil0 str0" x="18233.78" y="10630.99" width="1926.04" height="4411.25"/>
  <polygon class="fil1 str0" points="11967.23,4773.16 13886.51,7306.77 15805.78,9840.39 15072.69,13939.87 14339.59,18039.35 11967.23,18039.35 9594.87,18039.35 8861.77,13939.87 8128.68,9840.39 10047.95,7306.77 "/>
  <ellipse class="fil2 str1" cx="15045.65" cy="19526.72" rx="10637.57" ry="1701.11"/>
  <circle class="fil3 str0" cx="11949.73" cy="13445.17" r="5275.19"/>
  <rect class="fil4 str0" x="12120.74" y="12370.64" width="2428.35" height="8796.69"/>
  <path class="fil5 str0" d="M14549.09 18003.33l0 3222.76c-844.28,-5.65 -1662.88,-25.58 -2444.59,-58.23l0 -2975.44c781.71,-32.65 1600.31,-183.44 2444.59,-189.09z"/>
  <path class="fil6 str2" d="M12104.5 11387.11l2444.59 0 0 6616.22c-725.2,475.25 -1557.42,685.04 -2444.59,714.6l0 -7330.82z"/>
  <circle class="fil3 str0" cx="14000.64" cy="15973.31" r="185.42"/>
  <path class="fil1 str0" d="M9962.38 11996.17c828.53,0 1500.19,671.66 1500.19,1500.19 0,828.53 -671.66,1500.19 -1500.19,1500.19 -828.53,0 -1500.19,-671.66 -1500.19,-1500.19 0,-828.53 671.66,-1500.19 1500.19,-1500.19zm2.24 234.94c696.11,0 1260.42,564.31 1260.42,1260.42 0,696.11 -564.31,1260.42 -1260.42,1260.42 -696.11,0 -1260.42,-564.31 -1260.42,-1260.42 0,-696.11 564.31,-1260.42 1260.42,-1260.42z"/>
  <path class="fil1 str0" d="M9942.41 14740.14c-691.25,-5.67 -1249.89,-567.7 -1249.89,-1260.29 0,-692.59 558.64,-1254.62 1249.89,-1260.29l0 2520.58z"/>
  <path class="fil7 str0" d="M15658.47 14525.95c394.91,0 718.42,129.87 746.9,294.56l2.06 0 0 23.65 0 4950.42 -1496.36 0 0 -4930.02c-1,-6.74 -1.57,-13.55 -1.57,-20.4 0,-6.86 0.56,-13.64 1.57,-20.39l0 -3.26 0.49 0c28.48,-164.69 351.99,-294.56 746.91,-294.56z"/>
  <path class="fil7 str0" d="M23222.81 14525.95c394.91,0 718.42,129.87 746.9,294.56l2.06 0 0 23.65 0 4950.42 -1496.36 0 0 -4930.02c-1,-6.74 -1.57,-13.55 -1.57,-20.4 0,-6.86 0.56,-13.64 1.57,-20.39l0 -3.26 0.49 0c28.48,-164.69 351.99,-294.56 746.91,-294.56z"/>
  <path class="fil7 str0" d="M21706.04 14538.17c394.91,0 718.42,129.87 746.9,294.56l2.06 0 0 23.65 0 4950.42 -1496.36 0 0 -4930.02c-1,-6.74 -1.57,-13.55 -1.57,-20.4 0,-6.86 0.56,-13.64 1.57,-20.39l0 -3.26 0.49 0c28.48,-164.69 351.99,-294.56 746.91,-294.56z"/>
  <path class="fil7 str0" d="M20197.16 14533.73c394.91,0 718.42,129.87 746.9,294.56l2.06 0 0 23.65 0 4950.42 -1496.36 0 0 -4930.02c-1,-6.74 -1.57,-13.55 -1.57,-20.4 0,-6.86 0.56,-13.64 1.57,-20.39l0 -3.26 0.49 0c28.48,-164.69 351.99,-294.56 746.91,-294.56z"/>
  <path class="fil7 str0" d="M18682.88 14532.51c394.91,0 718.42,129.87 746.9,294.56l2.06 0 0 23.65 0 4950.42 -1496.36 0 0 -4930.02c-1,-6.74 -1.57,-13.55 -1.57,-20.4 0,-6.86 0.56,-13.64 1.57,-20.39l0 -3.26 0.49 0c28.48,-164.69 351.99,-294.56 746.91,-294.56z"/>
  <path class="fil7 str0" d="M17174.26 14530.08c394.91,0 718.42,129.87 746.9,294.56l2.06 0 0 23.65 0 4950.42 -1496.36 0 0 -4930.02c-1,-6.74 -1.57,-13.55 -1.57,-20.4 0,-6.86 0.56,-13.64 1.57,-20.39l0 -3.26 0.49 0c28.48,-164.69 351.99,-294.56 746.91,-294.56z"/>
  <path class="fil3 str0" d="M11973.3 5908.01c493.46,0 893.49,400.03 893.49,893.49 0,493.46 -400.03,893.49 -893.49,893.49 -493.46,0 -893.49,-400.03 -893.49,-893.49 0,-493.46 400.03,-893.49 893.49,-893.49zm1.33 139.93c414.6,0 750.69,336.09 750.69,750.68 0,414.6 -336.09,750.69 -750.69,750.69 -414.59,0 -750.68,-336.09 -750.68,-750.69 0,-414.59 336.09,-750.68 750.68,-750.68z"/>
  <path class="fil3 str0" d="M11961.41 7542.28c-411.7,-3.38 -744.42,-338.12 -744.42,-750.61 0,-412.5 332.72,-747.24 744.42,-750.61l0 1501.22z"/>
  <rect class="fil8 str0" x="6457.64" y="20017.51" width="3754.94" height="326.51"/>
  <path class="fil9 str0" d="M7343.21 15650.64c165.3,0 312.07,98.51 404.47,250.85 -24.88,-4.68 -50.36,-7.11 -76.3,-7.11 -123.47,0 -236.6,54.98 -324.46,146.28 -89.53,-99.42 -207.64,-159.88 -337.12,-159.88 -20.62,0 -40.94,1.57 -60.91,4.55 92.8,-143.11 234.95,-234.69 394.32,-234.69z"/>
  <ellipse class="fil9 str0" cx="7671.38" cy="16523.79" rx="506.27" ry="629.41"/>
  <ellipse class="fil9 str0" cx="7009.8" cy="16510.19" rx="506.27" ry="629.41"/>
  <ellipse class="fil10 str0" cx="7302.39" cy="16782.3" rx="506.27" ry="629.41"/>
  <ellipse class="fil1 str0" cx="7323.6" cy="16058.14" rx="313.8" ry="177.36"/>
  <path class="fil9 str0" d="M9968.64 15410.45c165.3,0 312.07,98.51 404.47,250.85 -24.88,-4.68 -50.36,-7.11 -76.3,-7.11 -123.47,0 -236.6,54.98 -324.46,146.28 -89.53,-99.42 -207.64,-159.88 -337.12,-159.88 -20.62,0 -40.94,1.57 -60.91,4.55 92.8,-143.11 234.95,-234.69 394.32,-234.69z"/>
  <ellipse class="fil9 str0" cx="10296.81" cy="16283.6" rx="506.27" ry="629.41"/>
  <ellipse class="fil9 str0" cx="9635.23" cy="16270" rx="506.27" ry="629.41"/>
  <ellipse class="fil9 str0" cx="9927.82" cy="16542.11" rx="506.27" ry="629.41"/>
  <ellipse class="fil1 str0" cx="9949.03" cy="15817.95" rx="313.8" ry="177.36"/>
  <rect class="fil11 str0" x="9871.79" y="17162.92" width="121.88" height="2848.81"/>
  <path class="fil9 str0" d="M6824.49 17660.33c69.8,0 131.78,41.6 170.81,105.93 -10.51,-1.97 -21.27,-3 -32.23,-3 -52.14,0 -99.91,23.22 -137.02,61.78 -37.81,-41.99 -87.68,-67.52 -142.36,-67.52 -8.71,0 -17.29,0.66 -25.73,1.92 39.19,-60.44 99.22,-99.11 166.53,-99.11z"/>
  <ellipse class="fil9 str0" cx="6963.07" cy="18029.06" rx="213.8" ry="265.8"/>
  <ellipse class="fil9 str0" cx="6683.69" cy="18023.32" rx="213.8" ry="265.8"/>
  <ellipse class="fil9 str0" cx="6807.25" cy="18138.23" rx="213.8" ry="265.8"/>
  <ellipse class="fil1 str0" cx="6816.21" cy="17832.42" rx="132.52" ry="74.9"/>
  <rect class="fil11 str0" x="6775.61" y="18408.51" width="60.94" height="1609.01"/>
  <path class="fil9 str0" d="M7663.84 17443.4c74.5,0 140.66,44.4 182.3,113.06 -11.21,-2.11 -22.69,-3.2 -34.39,-3.2 -55.65,0 -106.64,24.78 -146.24,65.93 -40.35,-44.81 -93.58,-72.06 -151.94,-72.06 -9.3,0 -18.46,0.71 -27.46,2.05 41.83,-64.5 105.9,-105.78 177.73,-105.78z"/>
  <ellipse class="fil9 str0" cx="7811.75" cy="17836.95" rx="228.19" ry="283.69"/>
  <ellipse class="fil9 str0" cx="7513.57" cy="17830.82" rx="228.19" ry="283.69"/>
  <ellipse class="fil9 str0" cx="7645.44" cy="17953.46" rx="228.19" ry="283.69"/>
  <ellipse class="fil1 str0" cx="7655" cy="17627.07" rx="141.44" ry="79.94"/>
  <rect class="fil11 str0" x="7611.67" y="18233.59" width="65.04" height="1785.61"/>
  <rect class="fil11 str0" x="7245.58" y="17411.78" width="121.88" height="2605.74"/>
  <path class="fil9 str0" d="M8557.4 18028.66c57.44,0 108.44,34.23 140.54,87.16 -8.64,-1.62 -17.49,-2.47 -26.51,-2.47 -42.9,0 -82.21,19.11 -112.74,50.83 -31.11,-34.55 -72.15,-55.55 -117.14,-55.55 -7.17,0 -14.23,0.54 -21.17,1.58 32.25,-49.73 81.64,-81.55 137.02,-81.55z"/>
  <ellipse class="fil9 str0" cx="8671.43" cy="18332.06" rx="175.92" ry="218.71"/>
  <ellipse class="fil9 str0" cx="8441.55" cy="18327.33" rx="175.92" ry="218.71"/>
  <ellipse class="fil9 str0" cx="8543.22" cy="18421.88" rx="175.92" ry="218.71"/>
  <ellipse class="fil1 str0" cx="8550.59" cy="18170.25" rx="109.04" ry="61.63"/>
  <rect class="fil11 str0" x="8517.18" y="18637.85" width="50.14" height="1376.6"/>
  <path class="fil9 str0" d="M9608.01 18030.01c57.44,0 108.44,34.23 140.54,87.16 -8.64,-1.62 -17.49,-2.47 -26.51,-2.47 -42.9,0 -82.21,19.11 -112.74,50.83 -31.11,-34.55 -72.15,-55.55 -117.14,-55.55 -7.17,0 -14.23,0.54 -21.17,1.58 32.25,-49.73 81.64,-81.55 137.02,-81.55z"/>
  <ellipse class="fil9 str0" cx="9722.04" cy="18333.41" rx="175.92" ry="218.71"/>
  <ellipse class="fil9 str0" cx="9492.16" cy="18328.68" rx="175.92" ry="218.71"/>
  <ellipse class="fil9 str0" cx="9593.83" cy="18423.23" rx="175.92" ry="218.71"/>
  <ellipse class="fil1 str0" cx="9601.2" cy="18171.6" rx="109.04" ry="61.63"/>
  <rect class="fil11 str0" x="9567.79" y="18639.2" width="50.14" height="1376.6"/>
  <path class="fil9 str0" d="M8025.24 18634.22c39.89,0 75.3,23.77 97.6,60.53 -6,-1.13 -12.15,-1.72 -18.41,-1.72 -29.79,0 -57.09,13.27 -78.29,35.3 -21.61,-23.99 -50.11,-38.58 -81.35,-38.58 -4.97,0 -9.88,0.38 -14.7,1.1 22.4,-34.53 56.7,-56.63 95.15,-56.63z"/>
  <ellipse class="fil9 str0" cx="8104.43" cy="18844.91" rx="122.16" ry="151.88"/>
  <ellipse class="fil9 str0" cx="7944.79" cy="18841.63" rx="122.16" ry="151.88"/>
  <ellipse class="fil9 str0" cx="8015.39" cy="18907.29" rx="122.16" ry="151.88"/>
  <ellipse class="fil12 str0" cx="8020.51" cy="18732.55" rx="75.72" ry="42.8"/>
  <rect class="fil11 str0" x="7997.31" y="19057.26" width="34.82" height="955.95"/>
  <path class="fil9 str0" d="M9267.96 18637.09c39.89,0 75.3,23.77 97.6,60.53 -6,-1.13 -12.15,-1.72 -18.41,-1.72 -29.79,0 -57.09,13.27 -78.29,35.3 -21.61,-23.99 -50.11,-38.58 -81.35,-38.58 -4.97,0 -9.88,0.38 -14.7,1.1 22.4,-34.53 56.7,-56.63 95.15,-56.63z"/>
  <ellipse class="fil9 str0" cx="9347.15" cy="18847.78" rx="122.16" ry="151.88"/>
  <ellipse class="fil9 str0" cx="9187.51" cy="18844.5" rx="122.16" ry="151.88"/>
  <ellipse class="fil9 str0" cx="9258.11" cy="18910.16" rx="122.16" ry="151.88"/>
  <ellipse class="fil1 str0" cx="9263.23" cy="18735.42" rx="75.72" ry="42.8"/>
  <rect class="fil11 str0" x="9240.03" y="19060.13" width="34.82" height="955.95"/>
  <circle class="fil7 str0" cx="15976.38" cy="6488.97" r="2257.4"/>
  <path class="fil11 str0" d="M19196.8 5598.44c25.58,0 51.08,0.33 76.51,0.97 -238.04,358.79 -376.82,789.16 -376.82,1252 0,1252.45 1015.31,2267.76 2267.76,2267.76 363.34,0 706.64,-85.59 1011.07,-237.49 -146.15,1516.37 -1423.81,2701.98 -2978.52,2701.98 -1652.77,0 -2992.61,-1339.84 -2992.61,-2992.61 0,-1652.77 1339.84,-2992.61 2992.61,-2992.61z"/>
  <circle class="fil11 str0" cx="20997.51" cy="8066.53" r="1408.28"/>
  <circle class="fil13 str0" cx="22509.35" cy="7051.74" r="1129.76"/>
  <circle class="fil11 str0" cx="22633.61" cy="5519.19" r="852.71"/>
  <circle class="fil11 str0" cx="15198.44" cy="3888.31" r="1408.48"/>
  <circle class="fil13 str0" cx="14471.51" cy="2576.36" r="1137.39"/>
  <circle class="fil11 str0" cx="13880.85" cy="1203.58" r="960.71"/>
  <circle class="fil9 str0" cx="13384.62" cy="2240.17" r="309.63"/>
  <ellipse class="fil14 str0" cx="13397.54" cy="1969.68" rx="27.99" ry="154.52"/>
  <circle class="fil9 str0" cx="13789.96" cy="3888.31" r="309.63"/>
  <ellipse class="fil14 str0" cx="13802.88" cy="3617.82" rx="27.99" ry="154.52"/>
  <circle class="fil9 str0" cx="15126.63" cy="5238.2" r="309.63"/>
  <ellipse class="fil14 str0" cx="15139.55" cy="4967.71" rx="27.99" ry="154.52"/>
  <circle class="fil9 str0" cx="16677.95" cy="5901.36" r="309.63"/>
  <ellipse class="fil14 str0" cx="16690.87" cy="5630.87" rx="27.99" ry="154.52"/>
  <circle class="fil9 str0" cx="14960.84" cy="8506.63" r="309.63"/>
  <ellipse class="fil14 str0" cx="14973.76" cy="8236.14" rx="27.99" ry="154.52"/>
  <circle class="fil9 str0" cx="17449.71" cy="7474.57" r="309.63"/>
  <ellipse class="fil14 str0" cx="17462.63" cy="7204.08" rx="27.99" ry="154.52"/>
  <circle class="fil9 str0" cx="18562.87" cy="9239.05" r="309.63"/>
  <ellipse class="fil14 str0" cx="18575.79" cy="8968.56" rx="27.99" ry="154.52"/>
  <circle class="fil9 str0" cx="17165.5" cy="10956.16" r="309.63"/>
  <ellipse class="fil14 str0" cx="17178.42" cy="10685.67" rx="27.99" ry="154.52"/>
  <circle class="fil9 str0" cx="19166.82" cy="11548.27" r="309.63"/>
  <ellipse class="fil14 str0" cx="19179.74" cy="11277.78" rx="27.99" ry="154.52"/>
  <circle class="fil9 str0" cx="21002.35" cy="11133.79" r="309.63"/>
  <ellipse class="fil14 str0" cx="21015.27" cy="10863.3" rx="27.99" ry="154.52"/>
  <circle class="fil9 str0" cx="21369.45" cy="9582.47" r="309.63"/>
  <ellipse class="fil14 str0" cx="21382.37" cy="9311.98" rx="27.99" ry="154.52"/>
  <circle class="fil9 str0" cx="20185.24" cy="7723.25" r="309.63"/>
  <ellipse class="fil14 str0" cx="20198.16" cy="7452.76" rx="27.99" ry="154.52"/>
  <circle class="fil9 str0" cx="21854.98" cy="8066.67" r="309.63"/>
  <ellipse class="fil14 str0" cx="21867.9" cy="7796.18" rx="27.99" ry="154.52"/>
  <circle class="fil9 str0" cx="23204.98" cy="6290.35" r="309.63"/>
  <ellipse class="fil14 str0" cx="23217.9" cy="6019.86" rx="27.99" ry="154.52"/>
 </g>
</svg>
