
<svg xmlns="http://www.w3.org/2000/svg"
 width="436" height="436">

<g transform="translate(0,436) scale(0.100000,-0.100000)"
fill="rgb(196, 161, 64)" stroke="none">
<path d="M2708 3640 c-99 -21 -169 -42 -246 -76 l-53 -23 -102 24 c-272 63
-615 61 -894 -5 -47 -11 -92 -24 -100 -29 -10 -5 -47 3 -107 24 -135 49 -237
64 -396 60 -139 -4 -318 -39 -346 -67 -7 -7 -23 -60 -34 -118 -38 -185 -27
-410 29 -573 19 -54 19 -57 1 -115 -75 -239 -40 -545 86 -755 152 -253 437
-473 747 -577 37 -13 67 -24 67 -26 0 -3 -9 -37 -20 -77 -27 -93 -27 -216 -2
-290 18 -53 18 -54 -5 -103 -30 -64 -30 -137 -2 -184 52 -87 97 -113 190 -113
82 1 162 24 261 75 l77 40 148 3 148 3 91 -45 c156 -76 300 -91 375 -40 60 41
92 91 97 153 4 51 6 55 26 49 43 -14 280 -15 339 0 143 34 276 132 339 251 64
118 100 325 90 504 -11 184 -8 272 11 322 20 52 82 114 124 124 83 20 190 108
247 203 30 50 86 187 86 211 0 15 -158 87 -240 110 -48 14 -119 23 -197 27
-68 3 -123 7 -123 9 0 1 13 35 29 76 35 86 66 205 80 303 20 141 1 452 -35
568 -7 24 -36 34 -179 64 -166 34 -475 41 -607 13z m582 -90 c63 -12 119 -26
123 -30 39 -35 55 -415 24 -572 -25 -124 -98 -338 -116 -338 -4 0 -11 25 -17
56 -10 54 -9 60 23 124 58 122 78 216 78 380 0 84 -6 174 -14 213 l-13 68 -32
-7 c-17 -4 -131 -37 -253 -74 l-222 -68 -81 54 c-45 30 -121 73 -168 96 -48
23 -89 43 -92 45 -14 12 127 56 237 73 109 17 396 6 523 -20z m-2212 -40 c51
-12 92 -25 92 -28 0 -4 -33 -23 -73 -42 -82 -40 -172 -99 -269 -176 l-66 -54
-59 43 c-32 24 -86 74 -120 112 -65 70 -78 106 -45 124 18 10 145 38 202 45
76 9 249 -3 338 -24z m1050 5 c288 -38 516 -136 744 -322 244 -199 369 -445
370 -728 0 -295 -142 -557 -415 -764 -195 -148 -431 -245 -687 -285 -146 -22
-484 -15 -614 13 -300 66 -545 192 -733 379 -200 198 -298 423 -292 669 8 321
171 589 491 806 56 39 78 59 82 80 13 62 85 97 131 63 17 -12 27 -10 84 11 84
33 186 59 281 72 41 6 86 13 100 15 69 10 358 4 458 -9z m1590 -1014 c94 -31
162 -62 162 -75 0 -23 -62 -142 -95 -182 -42 -52 -116 -99 -184 -120 -137 -40
-191 -162 -175 -394 21 -321 -12 -508 -115 -645 -99 -132 -301 -189 -530 -152
-52 9 -97 21 -101 27 -3 6 5 43 18 83 34 100 28 232 -16 362 -16 50 -26 91
-22 93 5 2 46 26 90 53 335 203 531 483 571 811 13 113 32 150 80 160 65 13
250 1 317 -21z m-1111 -1129 c72 -229 14 -418 -150 -493 -49 -22 -84 -24 -138
-7 -29 8 -45 8 -64 0 l-25 -12 29 53 c49 86 63 149 70 311 l6 149 110 37 c61
21 117 37 125 36 9 -1 23 -30 37 -74z m-1112 -18 c18 -5 20 -14 21 -112 2
-126 23 -226 64 -299 17 -29 30 -56 30 -59 0 -4 -18 -4 -40 -1 -133 18 -208
219 -151 406 22 73 28 78 76 65z m749 -131 c-2 -149 -26 -239 -86 -314 -43
-55 -64 -60 -104 -25 -40 34 -45 126 -13 228 13 40 28 105 34 143 l11 70 64
11 c101 18 95 26 94 -113z m-482 83 c4 -6 8 -21 8 -32 0 -12 11 -60 24 -106
47 -162 42 -234 -19 -274 -34 -22 -61 -9 -102 54 -49 75 -65 135 -71 265 l-5
118 79 -7 c43 -4 82 -12 86 -18z m234 -38 c-4 -29 -18 -89 -32 -133 -40 -126
-33 -246 16 -290 35 -32 24 -38 -51 -31 -39 3 -76 9 -81 12 -4 3 3 19 16 35
52 62 59 156 21 279 -15 44 -29 103 -32 130 l-6 50 78 0 78 0 -7 -52z m640
-424 c8 -43 -10 -88 -46 -114 -32 -23 -128 -27 -195 -9 -64 17 -135 51 -129
60 3 5 38 6 78 2 90 -7 155 12 223 67 26 21 51 36 55 34 4 -3 10 -20 14 -40z
m-1136 -29 c25 -13 56 -18 113 -17 55 1 89 -4 110 -15 l31 -16 -38 -19 c-93
-48 -210 -62 -266 -33 -48 25 -70 83 -54 142 l6 22 32 -23 c17 -13 47 -32 66
-41z"/>
<path d="M2228 3120 c-9 -6 -24 -30 -33 -54 -13 -35 -15 -51 -6 -82 6 -21 9
-39 7 -41 -1 -2 -30 8 -64 21 -109 43 -198 58 -367 63 -222 7 -352 -17 -531
-97 l-62 -28 14 27 c32 60 3 152 -52 165 -38 10 -80 -10 -94 -44 -29 -71 -3
-145 58 -165 l31 -11 -47 -29 c-74 -46 -204 -182 -245 -256 -67 -119 -80 -169
-81 -309 -1 -103 3 -137 21 -195 32 -100 87 -188 173 -275 186 -187 424 -286
716 -297 219 -8 394 24 564 104 118 56 179 101 286 209 130 133 192 298 181
483 -12 208 -119 384 -319 527 l-85 60 35 30 c29 24 35 37 39 79 4 41 0 56
-19 85 -20 29 -30 35 -63 37 -22 2 -48 -2 -57 -7z m42 -55 c10 -12 10 -18 0
-30 -14 -17 -20 -18 -39 -6 -16 10 -6 51 13 51 8 0 19 -7 26 -15z m-1111 -28
c8 -10 7 -18 -2 -31 -11 -15 -15 -15 -32 -2 -16 12 -17 16 -6 30 16 19 25 20
40 3z m747 -98 c142 -19 301 -81 419 -160 68 -46 175 -157 213 -221 60 -101
76 -161 76 -283 1 -89 -4 -122 -22 -175 -47 -135 -144 -251 -294 -351 -160
-105 -337 -155 -558 -158 -304 -4 -534 83 -725 274 -102 101 -146 177 -170
292 -40 188 12 357 154 506 115 121 229 191 391 241 47 15 114 30 150 35 96
12 278 13 366 0z" fill="rgb(84, 78, 63)"/>
<path d="M1434 2836 c-53 -53 -45 -105 21 -146 33 -21 35 -24 35 -78 0 -31 7
-83 14 -116 l14 -58 -44 5 c-58 6 -144 49 -196 98 -23 21 -45 39 -48 39 -11 0
-50 -31 -50 -41 0 -5 18 -29 40 -53 105 -114 321 -166 482 -116 152 47 349
245 272 274 -27 10 -30 8 -99 -63 -85 -88 -227 -164 -263 -142 -17 10 -42 118
-42 178 0 47 3 54 28 67 40 21 63 50 64 83 2 66 -47 103 -138 103 -50 0 -59
-3 -90 -34z" fill="rgb(84, 78, 63)"/>
</g>
</svg>
